<?xml version="1.0" encoding="UTF-8"?>
<!DOCTYPE svg PUBLIC "-//W3C//DTD SVG 1.1//EN" "http://www.w3.org/Graphics/SVG/1.1/DTD/svg11.dtd">
<!-- Creator: CorelDRAW 2020 (64 Bit) -->
<svg xmlns="http://www.w3.org/2000/svg" xml:space="preserve" width="210mm" height="210mm" version="1.1" style="shape-rendering:geometricPrecision; text-rendering:geometricPrecision; image-rendering:optimizeQuality; fill-rule:evenodd; clip-rule:evenodd"
viewBox="0 0 21000 21000"
 xmlns:xlink="http://www.w3.org/1999/xlink"
 xmlns:xodm="http://www.corel.com/coreldraw/odm/2003">
 <defs>
  <style type="text/css">
   <![CDATA[
    .str0 {stroke:#FEFEFE;stroke-width:200;stroke-miterlimit:22.9256}
    .str1 {stroke:#FEFEFE;stroke-width:25;stroke-miterlimit:22.9256}
    .fil1 {fill:#FEFEFE}
    .fil0 {fill:#008F6F}
    .fil3 {fill:#145037}
    .fil2 {fill:#DC4145}
   ]]>
  </style>
   <clipPath id="id0">
    <rect x="-24141.12" y="3110.98" width="19646.38" height="19646.38"/>
   </clipPath>
 </defs>
 <g id="Camada_x0020_1">
  <metadata id="CorelCorpID_0Corel-Layer"/>
  <rect class="fil0" x="-7.13" y="7.13" width="21000" height="21000" rx="2000" ry="2000"/>
  <path class="fil1" d="M16524.65 8575.95l3.98 32.1 171.99 1393.78c-23.03,-149.54 -44.91,-306.8 -67.13,-474.89 -795.6,581.25 -447.86,1056.54 -1936.36,1090.33 -1228.2,27.83 -1612.98,-161.3 -2725.24,-395.38 -455.92,425.89 -1899.36,2552.85 -2034.35,3192.96 866.51,109.88 2631.51,-186.63 3297.38,195.01 216.87,1358.34 -2712.14,680.18 -3768.56,961.13 -328.51,427.29 -791.12,2127.94 -906.47,2743.6 -161.43,861.27 -69.52,866 3.31,1621.95 124.33,1290.03 -2461.91,2173.78 -288.63,-4208.63l-625.81 -313.34c140.03,-1282.35 888.22,-475.25 1385.85,-1558.19 181.44,-394.94 278.29,-576.4 483.13,-952.35 379.81,-697.18 18.94,-262.4 -12.1,-1038.76l1173.02 -997.74c-897.71,-665.82 -3883.07,-1492.02 -5065.06,-1607.48 -2059.63,-201.18 -4011,79.06 -4280.98,2475.87 -409.35,3633.81 2074.7,6614.95 4179.16,5094.4 775.04,-559.98 783.98,-1834.85 1633.61,-1443.55 850.78,1285.92 -2948.46,4418.44 -5184.46,1679.54 -3105.97,-3804.4 -2397.54,-11242.86 6177.22,-8491.07 1523.26,488.81 6020.12,2641.83 7377.75,1796.69 579.06,-1010.6 -668.19,-741.7 -516.68,-1819.61 913.34,-295.05 1127.12,403.61 1525.43,1023.63zm108.84 950.99l-104.86 -918.89 104.86 918.89zm-104.86 -918.89l104.86 918.89 -104.86 -918.89z"/>
  <path class="fil2 str0" d="M19416.26 12056.96l415.53 -168.8c78.39,-257.24 644.45,-972.93 871.78,-1128.44 415.72,-284.36 937.5,-202.68 1317.63,-611.28 314.57,-338.14 605.18,-918.57 416.4,-1384.03 -185.18,-456.54 -862.07,-557.25 -1297.1,-638.2l94.62 -71.99c325.63,-201.14 701.65,-294.77 1022.52,-528.05 329.77,-239.73 649.73,-512.4 730.11,-954.07 88.66,-487.07 -200.29,-854.8 -453.98,-1228.76 -422,-622.01 -232.82,-568.2 -442.46,-1157.47 -304.7,-856.51 -1462.93,-1084.61 -2255.71,-801.71 -808.13,288.4 -1391.25,875.27 -2068.12,1197.09 71.87,-179.41 1010.75,-1454.72 1284.71,-1985.45 571.5,-1107.14 171.99,-1787.95 -1106.11,-1444.85 -1177.36,316.08 -1752.04,-577 -2699.73,37.08 -1202.46,779.14 -397.21,1664.38 -340.37,2187.33 -264.69,-22.99 -402.25,-135.89 -663.64,-181.55 -606.29,-105.93 -1541.35,-86.5 -1821.94,559.37 -237.31,546.33 -99.81,607.77 -599.77,996.75 -330.88,257.4 -578.1,433.82 -866.57,729.89 -1929.11,1979.89 3388.62,2042.01 3748.43,1818.23 300.4,-659.95 -2291.16,-527.58 -2762.5,-1190.66 158.05,-273.77 677.56,-541.2 941.01,-829.65 394.36,-431.7 -4.32,-914.51 710.5,-996.19 1876.95,-214.5 1408.8,1298.21 2016.58,1322.93 345.09,-413.08 -61.11,-1276.24 -302.44,-1702.03l215.54 -182.86c-5.51,-540.36 -222.12,-1494.19 542.61,-1641.21 305.42,-58.71 610.07,149.02 913.28,186.63 277.79,34.5 691.55,-150.04 894.38,6.69 590.92,515.48 -1777.5,2837.32 -1391.05,3395.28 216.23,5.76 255.47,-76.01 433.62,-197.53 108.49,235.85 -62.17,80.91 163.37,265.4 108.23,35.32 1752.02,-965.46 2575.16,-1141.78 1419.05,-304.02 1568.59,823.78 1734.19,1098.01 149.59,247.73 260.43,320.03 324.17,617.06 -261.86,467.05 -1324.39,866.79 -1835,1040.36 -1087.32,369.63 -2117.39,48.56 -2107.37,686.5 473,308.26 1602.41,34.86 1944.15,316.64 207.31,170.92 -66.97,123.93 372.25,233.34 149.29,37.2 262.48,64.63 403.7,124.59 277.5,117.76 438.42,219.17 620.68,450.34 -1.11,701.32 -513.76,592.27 -969.98,836.78 -437.1,234.25 -481.77,652.47 -900.57,924.41 -1087.78,-169.59 -1577.85,-2273.54 -2059.31,-2632.71 -237.14,127.75 -98.54,83.03 -258.16,294.24 -1.25,1.64 -2.51,3.31 -3.81,5.01l1.85 16.18 -2.04 -16.46 2.04 16.46 -1.85 -16.18c-0.06,-0.1 -0.12,-0.19 -0.19,-0.28l2.04 16.46 88.24 715.1c0.02,0.09 0.04,0.19 0.04,0.28 62.88,408.84 141.71,705.38 345.93,1127.38 234.16,483.85 493.14,688.7 723.41,1058.57 -6.27,-0.26 -12.59,-0.52 -18.93,-0.75l656.53 391.71c217.32,117.27 361.63,148.64 704.23,155.63 -0.8,1.74 -1.64,3.47 -2.53,5.22z"/>
  <path class="fil3 str1" d="M15729.37 7754.76c213.83,-62.52 1012.22,-943.97 1245.6,-1182.61 293.23,-299.8 1239.22,-742.59 1350.72,-1063 -372.02,-160.36 -1402.07,442.53 -1656.76,758.08 -357.26,442.64 -822.93,906.14 -939.56,1487.53z"/>
  <path class="fil3 str1" d="M16587.03 7742.38c393.81,-151.55 849.56,-605.4 1354.07,-804.35 371.3,-146.4 1325.28,-353.05 1521.81,-631.23 -325.31,-215.52 -1515.11,48.16 -1872.65,282.4 -347.73,227.81 -992.17,715.87 -1003.23,1153.18z"/>
  <path class="fil3 str1" d="M15641.67 7173.72c119.48,-93.09 -0.56,83.4 118.1,-148.64l442.16 -1425.01c106.61,-380.39 6.63,-1511.93 -353.73,-1685.68 60.41,1794.21 -305.17,2262.08 -206.53,3259.33z"/>
  <g style="clip-path:url(#id0)">
   <image x="-24141.12" y="3110.98" width="19646.38" height="19646.38" xlink:href="logo-icon_Images\logo-icon_ImgID1.png"/>
  </g>
 </g>
</svg>
