<?xml version="1.0" encoding="UTF-8"?>
<!DOCTYPE svg PUBLIC "-//W3C//DTD SVG 1.1//EN" "http://www.w3.org/Graphics/SVG/1.1/DTD/svg11.dtd">
<!-- Creator: CorelDRAW 2020 (64 Bit) -->
<svg xmlns="http://www.w3.org/2000/svg" xml:space="preserve" width="207mm" height="118mm" version="1.1" style="shape-rendering:geometricPrecision; text-rendering:geometricPrecision; image-rendering:optimizeQuality; fill-rule:evenodd; clip-rule:evenodd"
viewBox="0 0 20700 11800"
 xmlns:xlink="http://www.w3.org/1999/xlink"
 xmlns:xodm="http://www.corel.com/coreldraw/odm/2003">
 <defs>
  <style type="text/css">
   <![CDATA[
    .str0 {stroke:#282829;stroke-width:75;stroke-miterlimit:22.9256}
    .str1 {stroke:#373435;stroke-width:20;stroke-miterlimit:22.9256}
    .fil1 {fill:none}
    .fil0 {fill:black}
   ]]>
  </style>
 </defs>
 <g id="Camada_x0020_1">
  <metadata id="CorelCorpID_0Corel-Layer"/>
  <g id="_1945285980528">
   <path class="fil0" d="M13123.64 3832.75l0.97 7.88 42.18 341.83c-5.64,-36.68 -11.01,-75.25 -16.46,-116.47 -195.12,142.55 -109.84,259.12 -474.9,267.4 -301.22,6.83 -395.59,-39.55 -668.38,-96.96 -111.81,104.45 -465.82,626.09 -498.93,783.08 212.52,26.95 645.39,-45.77 808.7,47.83 53.18,333.14 -665.17,166.82 -924.26,235.72 -80.57,104.8 -194.02,521.89 -222.31,672.88 -39.6,211.23 -17.05,212.39 0.81,397.79 30.49,316.39 -603.8,533.13 -70.79,-1032.18l-153.48 -76.85c34.34,-314.5 217.84,-116.56 339.88,-382.15 44.5,-96.86 68.25,-141.37 118.49,-233.57 93.15,-170.99 4.65,-64.36 -2.97,-254.76l287.69 -244.7c-220.16,-163.3 -952.34,-365.93 -1242.23,-394.24 -505.13,-49.34 -983.71,19.39 -1049.92,607.22 -100.4,891.2 508.83,1622.34 1024.95,1249.42 190.09,-137.34 192.28,-450.01 400.65,-354.04 208.66,315.38 -723.12,1083.64 -1271.51,411.92 -761.75,-933.05 -588,-2757.36 1514.99,-2082.48 373.59,119.89 1476.46,647.93 1809.43,440.65 142.01,-247.85 -163.88,-181.9 -126.72,-446.27 224,-72.36 276.43,98.99 374.12,251.05zm26.69 233.24l-25.72 -225.36 25.72 225.36zm-25.72 -225.36l25.72 225.36 -25.72 -225.36z"/>
   <path class="fil0" d="M13668.93 5227.16l313.83 187.24c-31.25,-16.86 -65.67,-37.44 -106.77,-62.54 -119.39,87.03 -36.81,50.91 -201.08,106.23 -151.12,840.73 -1878.42,1773.48 -1506.63,749.76 104.86,-288.72 268.18,-449.5 413.59,-701.39 -176.78,-303.65 104.61,-224.88 352.19,-345.12 175.51,-85.24 163.24,-19.15 306,30.67 127.05,44.33 290.8,30.13 428.87,35.15zm-1275.1 1226.98c14.35,-201.59 217.68,-467.53 333.36,-639.45 135.26,-201.03 339.24,-430.07 621.73,-312.86 45.46,280.11 -661.98,899.5 -955.09,952.31z"/>
   <path class="fil0" d="M14318.19 5491.3l198.63 -80.7c-0.13,0.44 -0.26,0.87 -0.39,1.3 261.92,-38.35 571.06,-244.07 785.31,-20.28 19.52,241.97 -495.66,1307.56 -475.89,1590.86 123.8,6.34 403.64,-81.4 553.83,-105.67 245.93,-39.73 419.03,-29.21 660.42,-40.14l260.63 -824.05c-101.19,40.73 -1016.81,966.14 -1006.65,356.77 7.5,-449.2 748.29,-1202.48 1173.82,-1303.36 151.23,-35.86 180.7,-0.27 312.92,2.56 198.22,4.25 115.2,-79.18 260.72,-13.34 122.31,138.39 -80.23,349.33 -176.95,505.15 -266.05,428.61 -725.92,1262.12 -620.8,1751.65 426.24,222 1188.47,-434.28 1328.38,-765.21l-238.59 59.93c-56.03,195.22 -244.35,374.23 -437.25,277.44 -81.59,-166.09 34.92,-129.41 150.11,-214.67 -95.92,-148.46 -8.44,-121.15 -79.15,-269.95 -156.68,-329.72 -18.98,-587.85 178.93,-907.86 146.39,-236.71 623.84,-766.48 946.46,-563.47 19.75,103.58 6.67,110.27 -38.54,197.61 -304.29,51.92 -305.5,-91.49 -646.06,405.54 -153.54,224.11 -288.39,510.1 -231.19,788.17 385.3,202.76 560.28,-228.24 749.48,-149.88 85.56,134.05 -36.63,175.64 -152,271.35 61.48,206.77 22.62,216.46 -179.72,451.39 -369.18,428.63 -945.54,999.27 -1511.78,543.42 -181.67,188.47 -262.59,430.99 -560.01,508.61 165.47,-412.67 565.96,-391.65 471.37,-986.17 -247.37,-31.03 -1027.01,63.24 -1216.41,170.51 -133.55,162.72 -417.48,1221.36 -579.47,1396.89l-157.75 134.12 -13.96 -63.71c5.57,-202.69 455.83,-1036.18 505.11,-1442.79 -779.01,60.46 -2251.24,640.63 -3001.33,959.11 -683.75,290.29 -1956.44,1035.75 -2149.9,1795.2 -275.19,1080.38 1159.03,1938.31 2208.69,1572.41 1193.72,-416.12 1691.12,-1689.25 1938.88,-1954.45l65.03 20.99 20.8 122.23c-32.69,253.5 -670.35,971.25 -868.04,1184.59 -1595.07,1721.46 -3766.9,386.05 -3550.74,-942.19 140.78,-865.01 1493.87,-1595.47 2236.82,-1894.67 499.08,-200.98 990.3,-405.86 1507.51,-560.78 268.63,-80.47 531.94,-179.97 805.36,-244.14 253.98,-59.61 625.66,-123.12 855.99,-191.25l297.23 -1025.06c-267.02,-12.85 -1243.98,1112.51 -1670.42,897.43 -156.98,-297.74 186.02,-657.81 373.79,-840.74 99.72,-97.15 221.93,-206.43 336.9,-299.37 92.81,-75.03 337.57,-178.1 379.87,-261.33zm-764.03 1202.72c-240.51,-531.65 958.6,-1292.9 1422.96,-1231.72 19.46,381.81 -308.86,554.14 -573.84,754.64 -186.7,141.25 -621.43,540.42 -849.12,477.08zm2140.38 -486.19c52.38,-295.61 556.12,-907.69 857.92,-886.04 -33.84,207.75 -652.67,793.94 -857.92,886.04z"/>
   <path class="fil0" d="M4118.89 5152.46c12.16,-366.77 1007.05,-1890.33 1286.88,-2231.6 538.1,-656.23 1573.86,-1377.22 2351.04,-607.4 846.03,838 -303.93,1563.34 -995.93,1928.14 -446.37,235.33 -2216.97,947.15 -2641.99,910.86zm-2128.45 1210.62l27.4 154.37 162.94 24.83 16.18 -97.42c63.49,-320.76 49.5,-591.65 266.17,-1056.73 214.07,-46.5 1060.95,90.76 959.59,-240.68 -169.94,-69.82 -616.23,-22.45 -827.48,-31.44 3.04,-136.78 390.9,-710.52 499.66,-812.67 565.81,49.38 501.33,245.65 1103.99,-53.24 -27.57,209.54 -609.44,1090.08 -650.31,1800.72 -70.55,1226.69 1282.2,302.53 1090.04,16.41 -247.65,-38.72 -347.05,408.34 -682.17,299.73 -186.98,-178.1 -37.9,-710.76 47.54,-935.67 1053.54,-279.21 4938.3,-1176.85 4238.93,-2872.11 -153.4,-371.84 -621.94,-707.75 -1011.15,-787.26 -503.61,-102.87 -1011.57,94.03 -1413.09,385.74 -383.71,278.76 -618.37,536.42 -892.04,920.87l-689.07 1089.96c33.57,-632.39 -323.34,-575.05 -354.07,-541.34 -86.27,206.05 213.14,175.25 121.61,467.41 -459.21,156.51 -1440.33,-326.48 -1916.26,-474.12 -2903.92,-900.83 -2040.31,2939.95 -644.94,2366.38 198.07,-81.41 594.17,-418.07 424.22,-652.18 -230.46,-18.99 -151.38,236.49 -429.77,393.43 -571.27,322.03 -1169.08,-440.03 -1007.72,-1352.21 199.99,-1130.66 2120.49,-323.5 2340.7,-164.7l-294.54 273.27c76.23,316.28 128.85,-64.48 -115.85,478.75 -131.88,292.81 -312.23,61.36 -338,380.51 94.41,95.21 54.09,24.07 152.22,94.83 -78.95,218.4 -230.69,709.42 -184.73,924.56z"/>
   <path class="fil0" d="M7637.14 6344.04c59.45,-290.16 591.26,-991.1 908.66,-909.5 -11.37,159.07 -727.59,843.61 -908.66,909.5zm2153.65 231.09c-136.39,-9.66 -281.61,226.96 -363.2,330 -91.44,115.5 -262.73,252.81 -380.78,349.83 -251.24,206.51 -952.96,560.81 -828.7,-93.08 98.96,-520.73 367.39,-1096.25 657.56,-1539.16 445.5,-680 69.91,-452.26 -195.29,-481.79 -319.46,-35.57 -617.68,201.09 -828.7,412.28 -233.03,233.23 -725.52,686.92 -573.4,1083.17 305.69,263.84 805.83,-458.22 1046.56,-568.61 -173.9,452.44 -782.79,1722.96 180.6,1703.32 402.73,-8.2 1502.62,-922.6 1285.35,-1195.96z"/>
   <path class="fil0" d="M18422.18 6209.89c42.29,-255.87 623.17,-1026.97 872.04,-853.59 -75.26,156.61 -710.92,790.29 -872.04,853.59zm551.76 1108.39c-72.98,-332.06 180.37,-925.4 317.27,-1243.26 201.85,-468.67 583.79,-782.75 497.74,-1029.81 -164.08,-49.63 -72.58,-7.08 -184.65,14.49 -243.49,46.88 -444.32,-172.89 -1043.97,446.12 -201.79,208.3 -792.66,790.15 -428.77,1064.2 344.52,41.61 676.29,-491.4 927.2,-578.6 -183.68,437.96 -722.69,1620.74 170.95,1620.63 404.21,-0.06 1406.27,-837.31 1281.71,-1128.11 -159.29,-80.97 -232.53,131.36 -343.46,245.56 -284,292.35 -755.32,802.47 -1194.02,588.78z"/>
   <path class="fil0" d="M5095.36 6588.01c52.11,-210.47 236.22,-482.59 359.66,-662.28 145.05,-211.13 339.02,-440.1 633.58,-325.08 97.97,313.21 -704,915.98 -993.24,987.36zm1325.82 -1036.51c158.94,-35.74 235.36,-37.51 149.44,-212.57 -130.37,-36.45 -338.92,-21.98 -483.18,-35.36 -169.27,-15.69 -192.53,-116.61 -370.18,-71.22 -88.23,22.54 -87.73,60.3 -177.43,81.19 -91.93,21.42 -134.64,-11 -221.78,33.42 -151.52,77.24 -37.85,177.28 -11.56,273.02 -173.02,314.01 -562.02,656.57 -447.79,1051.42 205.97,442.99 1437.59,-410.86 1562.48,-1119.9z"/>
   <path class="fil0" d="M7672.23 5548.96c77.48,-112.64 109.35,-78.93 100.59,-232.63 -220.06,-152.78 -510.49,27.68 -643.14,191.95 -55.34,-112.94 -30.35,-266.18 -238.07,-154.84 -506.4,271.42 -89.34,88.03 -537.31,834.8 -88.42,147.39 -331.06,431.33 -230.71,586.07 246.93,112.58 542.8,-504.86 692.76,-665.09 397.63,-424.89 441.95,-493.25 855.88,-560.26z"/>
   <g>
    <path class="fil1 str0" d="M14318.19 5491.3l198.63 -80.7c37.48,-122.96 308.06,-465.08 416.73,-539.41 198.72,-135.93 448.14,-96.89 629.85,-292.2 150.38,-161.64 289.29,-439.1 199.05,-661.6 -88.52,-218.24 -412.09,-266.38 -620.04,-305.07l45.23 -34.42c155.66,-96.15 335.4,-140.9 488.79,-252.42 157.63,-114.59 310.58,-244.93 349,-456.06 42.38,-232.83 -95.74,-408.61 -217.01,-587.37 -201.72,-297.34 -111.29,-271.61 -211.5,-553.29 -145.66,-409.43 -699.31,-518.47 -1078.27,-383.24 -386.31,137.86 -665.05,418.4 -988.61,572.24 34.35,-85.77 483.16,-695.39 614.12,-949.09 273.19,-529.24 82.21,-854.67 -528.74,-690.67 -562.81,151.09 -837.51,-275.82 -1290.53,17.73 -574.8,372.44 -189.87,795.61 -162.7,1045.58 -126.53,-10.98 -192.29,-64.95 -317.24,-86.78 -289.81,-50.63 -736.8,-41.35 -870.92,267.39 -113.44,261.16 -47.71,290.53 -286.71,476.47 -158.16,123.04 -276.34,207.37 -414.23,348.9 -922.16,946.43 1619.83,976.12 1791.82,869.15 143.6,-315.47 -1095.22,-252.2 -1320.53,-569.16 75.55,-130.87 323.89,-258.7 449.83,-396.59 188.51,-206.36 -2.07,-437.15 339.63,-476.2 897.22,-102.53 673.43,620.57 963.96,632.39 164.96,-197.46 -29.21,-610.07 -144.57,-813.61l103.03 -87.41c-2.63,-258.3 -106.17,-714.25 259.38,-784.53 146,-28.06 291.63,71.24 436.57,89.22 132.79,16.49 330.57,-71.73 427.53,3.19 282.47,246.41 -849.68,1356.3 -664.95,1623.01 103.36,2.76 122.12,-36.33 207.28,-94.42 51.86,112.74 -29.72,38.68 78.09,126.87 51.74,16.88 837.5,-461.51 1230.98,-545.8 678.34,-145.32 749.82,393.79 828.98,524.87 71.51,118.43 124.49,152.99 154.96,294.97 -125.17,223.26 -633.08,414.35 -877.17,497.32 -519.76,176.69 -1012.15,23.21 -1007.36,328.16 226.1,147.35 765.98,16.66 929.34,151.36 99.1,81.7 -32.01,59.24 177.94,111.54 71.37,17.78 125.47,30.89 192.98,59.55 132.65,56.3 209.57,104.77 296.7,215.28 -0.53,335.24 -245.59,283.11 -463.67,399.99 -208.95,111.98 -230.3,311.9 -430.49,441.89 -519.98,-81.07 -754.25,-1086.8 -984.39,-1258.49 -113.36,61.07 -47.11,39.69 -123.41,140.65 -0.6,0.79 -1.2,1.59 -1.82,2.4l0.88 7.74 -0.97 -7.88 0.97 7.88 -0.88 -7.74c-0.03,-0.05 -0.06,-0.09 -0.09,-0.14l0.97 7.88 42.18 341.83c0.01,0.04 0.02,0.09 0.02,0.13 30.06,195.43 67.74,337.18 165.37,538.91 111.93,231.29 235.72,329.21 345.8,506.02 -3,-0.13 -6.02,-0.25 -9.05,-0.36l313.83 187.24c103.89,56.06 172.87,71.06 336.64,74.4 -0.38,0.83 -0.79,1.66 -1.21,2.5z"/>
    <path class="fil1 str0" d="M12555.78 3434.76c102.22,-29.89 483.86,-451.24 595.43,-565.31 140.16,-143.31 592.37,-354.98 645.66,-508.14 -177.83,-76.66 -670.21,211.54 -791.96,362.38 -170.78,211.59 -393.38,433.15 -449.13,711.07z"/>
    <path class="fil1 str0" d="M12965.76 3428.84c188.25,-72.44 406.11,-289.39 647.28,-384.5 177.48,-69.98 633.5,-168.76 727.45,-301.74 -155.5,-103.02 -724.25,23.02 -895.16,135 -166.23,108.89 -474.28,342.2 -479.57,551.24z"/>
    <path class="fil1 str0" d="M12513.86 3157.01c57.11,-44.5 -0.27,39.86 56.46,-71.06l211.36 -681.18c50.96,-181.83 3.16,-722.73 -169.09,-805.79 28.87,857.67 -145.88,1081.32 -98.73,1558.03z"/>
   </g>
   <path class="fil0" d="M14026.64 8596.11c-79.23,59.08 -447.23,788.32 -498.55,929.48l65.03 20.99 20.8 122.23c161.91,-114.74 524.58,-921.39 584.43,-1143.11l-157.75 134.12 -13.96 -63.71z"/>
   <path class="fil0" d="M2196.96 6444.86l-16.18 97.42 -162.94 -24.83 -27.4 -154.37c-63.13,101 -46.88,240.68 26.24,345.47 176.76,12.34 327.28,-157.08 180.28,-263.69z"/>
   <rect class="fil0" transform="matrix(0.50549 -0.85003 0.85003 0.50549 13372.8 9752.19)" width="464.4" height="192.37"/>
   <rect class="fil0" transform="matrix(0.389794 -0.875875 0.835917 0.408427 13908.1 8777.67)" width="464.4" height="192.37"/>
   <path class="fil0" d="M2098.95 6498.78l48.32 -180.93c60.84,26.34 101.76,99.09 101.76,180.93 0,105.54 -67.19,191.11 -150.08,191.11 -82.89,0 -150.08,-85.57 -150.08,-191.11 0,-105.54 67.19,-191.11 150.08,-191.11l0 191.11z"/>
   <path class="fil1 str1" d="M2033.83 6201.62c-33.28,24.66 -44.18,233.38 -66.15,287.98"/>
  </g>
 </g>
</svg>
